<svg width="15" height="15" viewBox="0 0 15 15" fill="none" xmlns="http://www.w3.org/2000/svg">
<path d="M13.1645 1H1.8343C1.67405 0.999866 1.51716 1.04476 1.38241 1.1293C1.24766 1.21385 1.14076 1.33446 1.07453 1.47669C1.0083 1.61892 0.985529 1.77675 1.00895 1.93127C1.03238 2.08579 1.10101 2.23045 1.20661 2.34794L5.6263 7.27006C5.75923 7.41833 5.8324 7.6086 5.8322 7.8055V11.7656C5.8322 11.8287 5.84726 11.8909 5.8762 11.9473C5.90514 12.0037 5.94715 12.0528 5.99892 12.0906L8.49968 13.9187C8.56161 13.964 8.63524 13.9916 8.71233 13.9984C8.78942 14.0051 8.86693 13.9909 8.93616 13.9571C9.00539 13.9234 9.06362 13.8715 9.10431 13.8073C9.145 13.7432 9.16656 13.6692 9.16656 13.5937V7.8055C9.16636 7.6086 9.23953 7.41833 9.37245 7.27006L13.7921 2.34713C14.264 1.82225 13.8805 1 13.1645 1Z" stroke="#7E7E7E" stroke-linecap="round"/>
</svg>
