<svg width="10" height="10" viewBox="0 0 10 10" fill="none" xmlns="http://www.w3.org/2000/svg">
<path d="M2.07864 4.75308C2.07865 4.69716 2.08969 4.6418 2.11112 4.59017C2.13255 4.53854 2.16394 4.49166 2.20351 4.45221C2.24309 4.41277 2.29004 4.38154 2.34169 4.36033C2.39333 4.33912 2.44866 4.32833 2.50448 4.32859L3.21052 4.33089C3.32308 4.33089 3.43104 4.37569 3.51063 4.45542C3.59024 4.53515 3.63496 4.64328 3.63496 4.75604V7.43008C3.71444 7.40646 3.81652 7.38126 3.92822 7.35492C4.00581 7.33667 4.07496 7.29269 4.12445 7.23011C4.17394 7.16754 4.20087 7.09004 4.20085 7.01021V3.69317C4.20085 3.58041 4.24556 3.47227 4.32516 3.39252C4.40475 3.31278 4.51271 3.26797 4.62529 3.26794H5.33272C5.44529 3.26797 5.55325 3.31278 5.63285 3.39252C5.71244 3.47227 5.75716 3.58041 5.75716 3.69317V6.7717C5.75716 6.7717 5.93429 6.69991 6.10681 6.62697C6.1709 6.59982 6.22559 6.55437 6.26406 6.49629C6.30253 6.43821 6.32307 6.37007 6.32314 6.30037V2.63031C6.32314 2.51757 6.36785 2.40944 6.44742 2.32972C6.527 2.24998 6.63494 2.20518 6.74749 2.20516H7.45493C7.5675 2.20516 7.67545 2.24996 7.75505 2.32968C7.83465 2.40941 7.87937 2.51755 7.87937 2.63031V5.65252C8.49269 5.20728 9.11423 4.67182 9.60746 4.02792C9.67905 3.93446 9.7264 3.82472 9.7453 3.70847C9.76421 3.59223 9.7541 3.4731 9.71588 3.36172C9.48755 2.70373 9.12467 2.10072 8.65034 1.59129C8.176 1.08186 7.60073 0.677215 6.96132 0.403263C6.32192 0.129311 5.63245 -0.00791927 4.93706 0.000352922C4.24166 0.00862517 3.55565 0.162218 2.92292 0.451303C2.29019 0.740387 1.72468 1.15859 1.26257 1.67917C0.800456 2.19974 0.451928 2.81121 0.239287 3.47445C0.0266474 4.13768 -0.0454235 4.83808 0.0276866 5.53082C0.100797 6.22356 0.317479 6.89339 0.663864 7.49743C0.724206 7.60162 0.812979 7.68642 0.919757 7.74183C1.02653 7.79725 1.14688 7.82099 1.26667 7.81028C1.40048 7.79851 1.56708 7.78179 1.76516 7.75849C1.85139 7.74869 1.931 7.70745 1.98883 7.64263C2.04666 7.57782 2.07865 7.49396 2.07873 7.40703L2.07864 4.75308Z" fill="#7E7E7E"/>
<path d="M2.06323 9.04197C2.80891 9.58535 3.69013 9.91153 4.6094 9.98439C5.52867 10.0572 6.45013 9.87391 7.27184 9.45469C8.09355 9.03547 8.78344 8.39676 9.26525 7.6092C9.74698 6.8216 10.0019 5.91587 10.0016 4.9922C10.0016 4.87694 9.99627 4.7629 9.98862 4.64954C8.16239 7.37775 4.79046 8.65322 2.06339 9.04156" fill="#7E7E7E"/>
</svg>
