<svg width="15" height="18" viewBox="0 0 15 18" fill="none" xmlns="http://www.w3.org/2000/svg">
<path d="M13.81 17.25L8.56884 11.2125C8.15287 11.5958 7.67452 11.8993 7.13376 12.1229C6.59301 12.3465 6.0176 12.4583 5.40752 12.4583C3.89619 12.4583 2.61724 11.8552 1.57068 10.649C0.524113 9.44278 0.000554617 7.9695 0 6.22917C0 4.48819 0.523559 3.01492 1.57068 1.80933C2.61779 0.60375 3.89674 0.000638889 5.40752 0C6.91885 0 8.19807 0.603111 9.24519 1.80933C10.2923 3.01556 10.8156 4.48883 10.815 6.22917C10.815 6.93194 10.718 7.59479 10.5239 8.21771C10.3297 8.84062 10.0663 9.39167 9.73353 9.87083L14.9747 15.9083L13.81 17.25ZM5.40752 10.5417C6.44742 10.5417 7.33148 10.1226 8.0597 9.28433C8.78791 8.44611 9.15174 7.42772 9.15118 6.22917C9.15118 5.03125 8.78735 4.01318 8.0597 3.17496C7.33204 2.33674 6.44798 1.91731 5.40752 1.91667C4.36761 1.91667 3.48383 2.3361 2.75617 3.17496C2.02851 4.01382 1.66441 5.03189 1.66385 6.22917C1.66385 7.42708 2.02796 8.44547 2.75617 9.28433C3.48438 10.1232 4.36817 10.5423 5.40752 10.5417Z" fill="#7E7E7E"/>
</svg>
