<svg width="11" height="10" viewBox="0 0 11 10" fill="none" xmlns="http://www.w3.org/2000/svg">
<path d="M5.5 0C5.66831 0 5.82973 0.0658479 5.94874 0.183058C6.06775 0.300268 6.13462 0.45924 6.13462 0.625V9.375C6.13462 9.54076 6.06775 9.69973 5.94874 9.81694C5.82973 9.93415 5.66831 10 5.5 10C5.33169 10 5.17027 9.93415 5.05126 9.81694C4.93225 9.69973 4.86538 9.54076 4.86538 9.375V0.625C4.86538 0.45924 4.93225 0.300268 5.05126 0.183058C5.17027 0.0658479 5.33169 0 5.5 0ZM7.82692 1.66667C7.99523 1.66667 8.15665 1.73251 8.27566 1.84972C8.39468 1.96694 8.46154 2.12591 8.46154 2.29167V7.70833C8.46154 7.87409 8.39468 8.03306 8.27566 8.15027C8.15665 8.26748 7.99523 8.33333 7.82692 8.33333C7.65861 8.33333 7.4972 8.26748 7.37818 8.15027C7.25917 8.03306 7.19231 7.87409 7.19231 7.70833V2.29167C7.19231 2.12591 7.25917 1.96694 7.37818 1.84972C7.4972 1.73251 7.65861 1.66667 7.82692 1.66667ZM3.80769 2.29167C3.80769 2.12591 3.74083 1.96694 3.62182 1.84972C3.5028 1.73251 3.34139 1.66667 3.17308 1.66667C3.00477 1.66667 2.84335 1.73251 2.72434 1.84972C2.60532 1.96694 2.53846 2.12591 2.53846 2.29167V7.70833C2.53846 7.87409 2.60532 8.03306 2.72434 8.15027C2.84335 8.26748 3.00477 8.33333 3.17308 8.33333C3.34139 8.33333 3.5028 8.26748 3.62182 8.15027C3.74083 8.03306 3.80769 7.87409 3.80769 7.70833V2.29167ZM10.3654 3.33333C10.5337 3.33333 10.6951 3.39918 10.8141 3.51639C10.9331 3.6336 11 3.79257 11 3.95833V6.04167C11 6.20743 10.9331 6.3664 10.8141 6.48361C10.6951 6.60082 10.5337 6.66667 10.3654 6.66667C10.1971 6.66667 10.0357 6.60082 9.91664 6.48361C9.79763 6.3664 9.73077 6.20743 9.73077 6.04167V3.95833C9.73077 3.79257 9.79763 3.6336 9.91664 3.51639C10.0357 3.39918 10.1971 3.33333 10.3654 3.33333ZM1.26923 3.95833C1.26923 3.79257 1.20237 3.6336 1.08336 3.51639C0.964343 3.39918 0.802926 3.33333 0.634615 3.33333C0.466305 3.33333 0.304888 3.39918 0.185875 3.51639C0.0668611 3.6336 0 3.79257 0 3.95833V6.04167C0 6.20743 0.0668611 6.3664 0.185875 6.48361C0.304888 6.60082 0.466305 6.66667 0.634615 6.66667C0.802926 6.66667 0.964343 6.60082 1.08336 6.48361C1.20237 6.3664 1.26923 6.20743 1.26923 6.04167V3.95833Z" fill="#7E7E7E"/>
</svg>
