<svg width="10" height="10" viewBox="0 0 10 10" fill="none" xmlns="http://www.w3.org/2000/svg">
<path fill-rule="evenodd" clip-rule="evenodd" d="M8.96417 0.0684131C9.08712 0.00783695 9.2217 -0.0130553 9.35389 0.00791049C9.48608 0.0288763 9.61105 0.090934 9.7158 0.187624C9.82055 0.284314 9.90125 0.412102 9.94949 0.557687C9.99773 0.703272 10.0118 0.861333 9.9901 1.01542L8.86168 9.02766C8.75222 9.80052 8.02779 10.2437 7.42229 9.85876C6.91579 9.53669 6.1635 9.04047 5.48685 8.52271C5.14852 8.26353 4.11213 7.4336 4.23951 6.84303C4.34896 6.33808 6.09036 4.44058 7.08545 3.31245C7.47602 2.86923 7.2979 2.61355 6.83668 3.02124C5.69134 4.03347 3.85242 5.57279 3.24442 6.0061C2.70807 6.38817 2.42845 6.4534 2.0941 6.38817C1.48411 6.26936 0.918408 6.08531 0.456688 5.86108C-0.16723 5.55823 -0.13688 4.55415 0.456191 4.26178L8.96417 0.0684131Z" fill="#7E7E7E"/>
</svg>
