<svg width="39" height="18" viewBox="0 0 39 18" fill="none" xmlns="http://www.w3.org/2000/svg">
<g clip-path="url(#clip0_0_33)">
<path d="M13.5573 13.8636C10.795 11.1768 10.795 6.81818 13.5573 4.12626L17.8047 0C12.3215 0.171717 6.89029 2.29293 2.70004 6.36869L0 8.99495L2.70004 11.6212C6.89029 15.697 12.3163 17.8182 17.8047 17.9899L13.5573 13.8586V13.8636Z" fill="#FF0014"/>
<path d="M36.2896 6.36869C32.1097 2.29293 26.6733 0.171717 21.1901 0L25.4375 4.13131C28.1998 6.81818 28.1998 11.1768 25.4375 13.8687L21.1901 18C26.6785 17.8232 32.1045 15.7071 36.2948 11.6313L38.9948 9.00505L36.2948 6.37879L36.2896 6.36869Z" fill="#FF0014"/>
<path d="M19.4974 4.32828C19.4974 6.90404 17.3478 8.99495 14.6996 8.99495C17.3478 8.99495 19.4974 11.0859 19.4974 13.6616C19.4974 11.0859 21.647 8.99495 24.2952 8.99495C21.647 8.99495 19.4974 6.90404 19.4974 4.32828Z" fill="#FF0014"/>
</g>
<defs>
<clipPath id="clip0_0_33">
<rect width="39" height="18" fill="white"/>
</clipPath>
</defs>
</svg>
