<svg width="10" height="10" viewBox="0 0 10 10" fill="none" xmlns="http://www.w3.org/2000/svg">
<path d="M5.25 9.5C5.80812 9.5 6.36077 9.39007 6.8764 9.17649C7.39204 8.96291 7.86055 8.64985 8.2552 8.2552C8.64985 7.86055 8.96291 7.39204 9.17649 6.8764C9.39007 6.36077 9.5 5.80812 9.5 5.25C9.5 4.69188 9.39007 4.13923 9.17649 3.6236C8.96291 3.10796 8.64985 2.63945 8.2552 2.2448C7.86055 1.85015 7.39204 1.53709 6.8764 1.32351C6.36077 1.10993 5.80812 1 5.25 1M5.25 9.5C4.69188 9.5 4.13923 9.39007 3.6236 9.17649C3.10796 8.96291 2.63945 8.64985 2.2448 8.2552C1.85015 7.86055 1.53709 7.39204 1.32351 6.8764C1.10993 6.36077 1 5.80812 1 5.25C1 4.69188 1.10993 4.13923 1.32351 3.6236C1.53709 3.10796 1.85015 2.63945 2.2448 2.2448C2.63945 1.85015 3.10796 1.53709 3.6236 1.32351C4.13923 1.10993 4.69188 1 5.25 1M5.25 9.5C6.55381 9.5 7.11103 7.06192 7.11103 5.25C7.11103 3.43808 6.55381 1 5.25 1M5.25 9.5C3.94619 9.5 3.38897 7.06192 3.38897 5.25C3.38897 3.43808 3.94619 1 5.25 1M1.23611 3.83333H9.26389M1.23611 6.66667H9.26389" stroke="#7E7E7E" stroke-width="0.5" stroke-linecap="round" stroke-linejoin="round"/>
</svg>
